Van Helsing 2004 BluRay 1080p DTS x264-LoNeWolf

Encoder Tequila-Bob/ a.k.a. bobnjeff/ a.k.a.LoNeWoLf

Source - NTSC BluRay Disc.

Movie has been tested and is DXVA Compliant

 
http://www.imdb.com/title/tt0338526/

 More at IMDbPro » Van Helsing (2004) 
  131 min  -  Action | Adventure | Drama   -  7 May 2004 (USA) 
  5.6/10 X  Users: 5.6/10 (72,617 votes) 1,305 reviews | Critics: 255 reviews Metascore: 36/100 (based on 39 reviews from Metacritic.com) 
  The notorious monster hunter is sent to Transylvania to stop Count Dracula who is using Dr. Frankenstein's research and a werewolf for 
  some sinister purpose. 

Director: Stephen Sommers
Writer: Stephen Sommers
Stars:Hugh Jackman, Kate Beckinsale, Richard Roxburgh  

Genres:Action, Adventure, Drama, Fantasy, Mystery, Thriller, 

Rated PG-13 for nonstop creature action violence and frightening images, and for sensuality

Release Date:7 May 2004 (USA)

 

Storyline
Van Helsing is in the world to rid all evil, even if not everyone agrees with him. The Vatican send the monster hunter and his ally, Carl to Transylvania. They have been sent to this land to stop the powerful Count Dracula. Whilst, here they join forces with a Gypsy Princess called Anna Valerious, who is determined to end an ancient curse on her family, by destroying the vampire. They just don't know how! Written by Film_Fan  


Cast
Cast overview, first billed only: 
  Hugh Jackman  ...  Van Helsing  
  Kate Beckinsale  ...  Anna Valerious  
  Richard Roxburgh  ...  Count Vladislaus Dracula  
  David Wenham  ...  Carl  
  Shuler Hensley  ...  Frankenstein's Monster  
  Elena Anaya  ...  Aleera  
  Will Kemp  ...  Velkan  
  Kevin J. O'Connor  ...  Igor  
  Alun Armstrong  ...  Cardinal Jinette  
  Silvia Colloca  ...  Verona  
  Josie Maran  ...  Marishka  
  Tom Fisher  ...  Top Hat  
  Samuel West  ...  Dr. Victor Frankenstein  
  Robbie Coltrane  ...  Mr. Hyde  
  Stephen Fisher  ...  Dr. Jekyll (as Stephen H. Fisher) 


[img]http://torrent-stats.info/4042/4ae66e4c.png[/img]


Format : Matroska 
File size : 7.96 GiB 
Duration : 2h 11mn 
Overall bit rate : 8 661 Kbps 
Encoded date : UTC 2011-02-05 04:01:25 
Writing application : mkvmerge v4.4.0 ('Die Wiederkehr') built on Oct 31 2010 21:52:48 
Writing library : libebml v1.0.0 + libmatroska v1.0.0 

Video 
ID : 1 
Format : AVC 
Format/Info : Advanced Video Codec 
Format profile : High@L4.1 
Format settings, CABAC : Yes 
Format settings, ReFrames : 3 frames 
Muxing mode : Container profile=Unknown@4.1 
Codec ID : V_MPEG4/ISO/AVC 
Duration : 2h 11mn 
Bit rate : 7 135 Kbps 
Width : 1 920 pixels 
Height : 1 040 pixels 
Display aspect ratio : 16:9 
Frame rate : 23.976 fps 
Color space : YUV 
Chroma subsampling : 4:2:0 
Bit depth : 8 bits 
Scan type : Progressive 
Bits/(Pixel*Frame) : 0.149 
Stream size : 6.42 GiB (81%) 
Writing library : x264 core 112 r1867 22bfd31 
Encoding settings : cabac=1 / ref=4 / deblock=1:-3:-3 / analyse=0x3:0x113 / me=umh / subme=10 / psy=1 / psy_rd=1.00:0.08 / mixed_ref=1 / me_range=32 / chroma_me=1 / trellis=2 / 8x8dct=1 / cqm=0 / deadzone=21,11 / fast_pskip=0 / chroma_qp_offset=-3 / threads=6 / sliced_threads=0 / nr=0 / decimate=1 / interlaced=0 / constrained_intra=0 / bframes=6 / b_pyramid=1 / b_adapt=1 / b_bias=0 / direct=1 / weightb=1 / open_gop=2 / weightp=2 / keyint=250 / keyint_min=23 / scenecut=40 / intra_refresh=0 / rc_lookahead=100 / rc=2pass / mbtree=1 / bitrate=7135 / ratetol=1.0 / qcomp=0.60 / qpmin=10 / qpmax=51 / qpstep=4 / cplxblur=20.0 / qblur=0.5 / vbv_maxrate=50000 / vbv_bufsize=50000 / nal_hrd=none / ip_ratio=1.40 / aq=1:1.50 
Language : English 

Audio 
ID : 2 
Format : DTS 
Format/Info : Digital Theater Systems 
Codec ID : A_DTS 
Duration : 2h 11mn 
Bit rate mode : Constant 
Bit rate : 1 510 Kbps 
Channel(s) : 6 channels 
Channel positions : Front: L C R, Side: L R, LFE 
Sampling rate : 48.0 KHz 
Bit depth : 24 bits 
Video delay : 10ms 
Stream size : 1.39 GiB (17%) 
Title : 3/2+1 
Language : English 

Text #1 
ID : 3 
Format : PGS 
Codec ID : S_HDMV/PGS 
Codec ID/Info : The same subtitle format used on BDs/HD-DVDs 
Language : English 

Text #2 
ID : 4 
Format : PGS 
Codec ID : S_HDMV/PGS 
Codec ID/Info : The same subtitle format used on BDs/HD-DVDs 
Language : Spanish 

Text #3 
ID : 5 
Format : PGS 
Codec ID : S_HDMV/PGS 
Codec ID/Info : The same subtitle format used on BDs/HD-DVDs 
Language : French 

Text #4 
ID : 6 
Format : PGS 
Codec ID : S_HDMV/PGS 
Codec ID/Info : The same subtitle format used on BDs/HD-DVDs 
Language : Spanish 

Text #5 
ID : 7 
Format : PGS 
Codec ID : S_HDMV/PGS 
Codec ID/Info : The same subtitle format used on BDs/HD-DVDs 
Language : French 

Menu & 27 Chapters



See the full size 1920x1040 PNG files at the link below
 
http://s1015.photobucket.com/albums/af279/tequila-bob/Van%20Helsing%202004/


 
http://www.imagebam.com/image/f6c357118320159
 
http://www.imagebam.com/image/de74f2118320109
 
http://www.imagebam.com/image/12c804118320175
 
http://www.imagebam.com/image/967b30118320201
 
http://www.imagebam.com/image/d8e386118320280
 
http://www.imagebam.com/image/43ee29118320298
 
http://www.imagebam.com/image/a26caa118320367
 
http://www.imagebam.com/image/9f6408118320352